<?xml version="1.0" encoding="UTF-8"?>
<svg id="Layer_2" data-name="Layer 2" xmlns="http://www.w3.org/2000/svg" viewBox="0 0 70 70">
  <defs>
    <style>
      .cls-1 {
        fill: #e4e4e4;
      }

      .cls-1, .cls-2, .cls-3, .cls-4, .cls-5 {
        stroke-width: 0px;
      }

      .cls-2 {
        fill: #6c3f99;
      }

      .cls-3 {
        fill: #f93;
      }

      .cls-4 {
        fill: #fff;
      }

      .cls-5 {
        fill: #0f0c11;
      }
    </style>
  </defs>
  <g id="Layer_1-2" data-name="Layer 1">
    <circle class="cls-4" cx="35" cy="35" r="35"/>
    <g>
      <g>
        <path class="cls-1" d="M33.6,23.7c-1.84-2.15-4.58-5.31-6.61-7.39-.01-.01-.02-.02-.03-.03-1.5-1.54-2.03-1.9-2.19-1.98-.33-.17-.59-.31-.79-.43-.04-.02-.07-.04-.11-.06-.11.18-.25.42-.44.71-.18.27-.55,1.57-.77,3.88-.29,3.13-.22,7.4.85,9.84,2.79-1.39,6.52-3.16,10.09-4.55ZM24.07,15.49c.21-.57.7-.36.7-.36l.91,1.17h0l4.29,5.47c.66.84.29,2.09-.72,2.41l-1.87.6c-.84.27-1.73-.26-1.91-1.14-.55-2.68-1.56-7.74-1.4-8.16Z"/>
        <path class="cls-1" d="M43.7,18.6c.47-1.85,1.16-4.56,1.3-4.78.21-.34.32-.14.32-.14l.19,4.93c.02.58-.35,1.28-.74,1.43.26.38.5.76.73,1.16.19,0,.38,0,.58,0,.96-4.84-.16-7.96-.78-9.23l-4.2,4.15c.91.68,1.78,1.51,2.59,2.48Z"/>
        <path class="cls-1" d="M48.62,35.38s0-1.48-.31-3.38l-1.22-.36.27,1.19c.1.45-.17.9-.6,1-.06.02-.13.02-.19.02-.37,0-.7-.26-.79-.64l-.22-.97-.46.56c-.16.2-.39.3-.62.3-.19,0-.37-.07-.52-.2-.34-.3-.39-.82-.1-1.18l1.5-1.82s0,0,.01-.01c.01-.02.03-.03.04-.04.02-.02.04-.04.07-.06.01-.01.03-.02.04-.04.03-.02.07-.04.1-.06.01,0,.02-.01.03-.02.04-.02.08-.03.12-.04,0,0,.01,0,.02,0,0,0,.02,0,.02,0,.04,0,.07-.01.11-.02.01,0,.02,0,.04,0,.05,0,.09,0,.14.01.02,0,.03,0,.05.01.02,0,.04,0,.06.01l1.75.52c-.12-.51-.27-1.04-.44-1.56,0-.02-.01-.04-.02-.06-.82-2.45-2.25-4.81-4.71-5.57-1.07.1-2.11.26-3.09.49-1.22.28-2.71.75-4.43,1.39-4.12,1.53-8.66,3.7-11.74,5.26-1.55.78-2.17,1.12-2.26,1.17-.21.12-.54.32-.94.5.11,1.19.12,2.34.05,3.41-.17,2.31-.75,3.97-1.3,5.07,3.03,2.7,7.49,5.73,7.93,6.02.82.44,1.68.92,2.69,1.51,2.61,1.52,4.55,2.8,6.3,4.12.76.58,1.41,1.13,1.97,1.67l3.36-4.52c.14-.19.35-.31.58-.33.15-.02,3.73-.39,5.64-4,.08-.15.2-.27.34-.34.02-.01,1.71-.94,2.23-2.91.42-1.61-.03-3.51-1.35-5.63-.08-.13-.13-.29-.13-.45ZM26.61,37.5c-.32.02-.59-.22-.61-.54-.02-.32.22-.6.53-.62,3.82-.27,11.39,1.76,11.71,1.84.3.08.49.4.41.71-.07.26-.3.44-.55.44-.05,0-.1,0-.15-.02-.08-.02-7.71-2.07-11.34-1.81ZM29.27,43.63c-.1.08-.22.12-.34.12-.17,0-.35-.08-.46-.24-.19-.26-.13-.63.12-.82,2.41-1.84,9.19-2.26,9.48-2.28.31-.02.58.23.6.55.02.32-.22.6-.54.62-.07,0-6.72.42-8.86,2.05ZM38.38,43.94c-1.12.34-4.22,1.53-5.17,2.99-.11.17-.29.26-.48.26-.11,0-.22-.03-.32-.1-.26-.18-.33-.54-.16-.81,1.38-2.12,5.62-3.41,5.8-3.46.3-.09.62.09.71.4.09.31-.08.63-.39.73ZM41.18,32.65c-.21.41-.7.56-1.1.35l-1.79-.97.16,1.92c.04.46-.3.86-.74.9-.02,0-.05,0-.07,0-.42,0-.78-.33-.81-.77l-.17-2.08-2.7,1.72c-.13.08-.28.13-.43.13-.27,0-.54-.14-.69-.4-.24-.39-.12-.91.26-1.15l3.83-2.43s.02-.01.03-.02c.01,0,.02-.01.03-.02.04-.02.08-.04.13-.05,0,0,0,0,.01,0,.04-.01.09-.02.13-.03,0,0,.01,0,.02,0,0,0,0,0,.01,0,.05,0,.09,0,.14,0,0,0,.02,0,.03,0,.04,0,.08.01.11.03.01,0,.02,0,.03.01.04.01.08.03.11.05l3.11,1.68c.4.21.55.72.34,1.13ZM47.74,38.71c-.21,1.83.81,2.31.87,2.34.29.12.43.45.32.75-.11.3-.44.45-.74.33-.06-.02-1.04-.43-1.44-1.7-.07.2-.17.39-.28.57-.78,1.2-2.28,1.4-2.35,1.41-.02,0-.05,0-.07,0-.28,0-.53-.22-.57-.51-.04-.32.18-.61.5-.65.01,0,1.05-.15,1.54-.9.26-.41.33-.94.19-1.59-1.53-.75-1.42-1.24-1.37-1.49.13-.66.94-.67,1.3-.67l1.77-.09s.02,0,.03,0c.33,0,1.21,0,1.38.69.05.19.18.73-1.08,1.51Z"/>
      </g>
      <g>
        <path class="cls-3" d="M38.58,22.02c-.65-.34-1.09-1.03-1.09-1.82,0-1.13.9-2.04,1.99-2.04s2,.92,2,2.04c0,.5-.17.95-.46,1.31.58-.09,1.18-.16,1.79-.21,0,0,.01,0,.02,0,.26-.02.53-.04.79-.06-.12-.18-.24-.37-.37-.54-.11-.16-.24-.33-.38-.51-1.06-1.37-2.22-2.46-3.46-3.22-1.38-.85-2.84-1.3-4.37-1.35-1.97-.06-3.98.13-5.9.55,2.07,2.21,4.54,5.08,6.12,6.93,1.23-.44,2.35-.8,3.34-1.07Z"/>
        <path class="cls-3" d="M20.48,29.8s.44-.24,1.57-.81c-1-2.26-1.26-5.67-1.15-8.76-.85.88-1.45,1.85-1.77,2.88-1.94,6.18-.97,7.21-.85,7.3.23.19.93.14,2.18-.6,0,0,.01,0,.02-.01Z"/>
      </g>
      <path class="cls-2" d="M35.01,53.23c-1.7-1.29-3.6-2.53-6.14-4.02-1.01-.59-1.86-1.07-2.67-1.5-.02-.01-.05-.03-.07-.04-.22-.15-5.41-3.63-8.65-6.64,0,0,0,0-.01-.01,0,0,0,0,0,0-1.29-1.2-2.08-2.13-2.44-2.92-.32.49-.6,1.17-.82,2-.05.2-.08.4-.08.6-.02,2.76,4.99,4.95,6.92,5.56.43.14.67.6.54,1.04-.11.36-.43.59-.78.59-.08,0-.16-.01-.24-.04-.08-.03-1.99-.63-3.92-1.75-2.15-1.25-3.47-2.63-3.95-4.11-.7.48-1.23,1.1-1.02,1.82.56,1.87,1.35,2.29,2.92,3.13.31.17.67.36,1.05.57.27.16.8.24,1.27.31.3.05.58.09.84.16,1.94.49,3.84,1.03,5.67,1.61l.57.18c2.29.73,4.66,1.48,6.91,2.52,1.55.72,3,1.64,4.32,2.73.51.42.95.92,1.38,1.4.71.79,1.37,1.54,2.22,1.85.17.06.23.05.23.05.04,0,.07-.02.09-.02.03-.38-.55-1.53-1.41-2.56-.69-.83-1.55-1.62-2.72-2.51Z"/>
      <g>
        <path class="cls-5" d="M59.55,34.38c-2.38-.55-6.75,1.39-8.52,2.25-.22-.49-.48-.99-.78-1.5-.02-.82-.14-3.46-.93-6.23,1.2-.3,2.86-.81,4.92-1.73,1.2-.53,2.78-1.4,2.66-2.72-.13-1.4-2.13-1.98-2.78-2.12-.3-.09-2.87-.8-6.38-1.06,1.32-7.05-1.36-10.79-1.48-10.95-.19-.26-.51-.37-.8-.31-.25-.05-.53.02-.73.22l-5.03,4.97c-1.46-.79-3.01-1.22-4.61-1.27-1.42-.04-2.86.04-4.28.23.03-.1.05-.2.03-.29-.08-.46-.74-.71-1.47-.58-.73.14-1.26.62-1.18,1.07.02.1.06.18.12.26-.17.04-.34.09-.51.13-1.42-1.42-1.98-1.8-2.29-1.96-.31-.16-.55-.29-.75-.4-1.05-.58-1.59-.64-2.25.5-.1.18-.23.4-.41.67-.57.86-.88,3.07-1.01,4.29-1.76,1.35-2.93,2.94-3.49,4.73-2.09,6.67-1.19,8.4-.33,9.11.41.34.89.47,1.37.47.03,0,.06,0,.09,0,.06.75.08,1.47.06,2.17-1.57.2-2.68.64-3.33,1.33-.95.35-2.12,1.34-2.81,4.01-.04.16-.07.32-.09.49-2.72,1.46-2.69,3.2-2.41,4.14.76,2.54,2.07,3.23,3.72,4.12.32.17.65.35,1.01.55.53.3,1.22.41,1.82.5.26.04.51.08.7.13,1.9.48,3.78,1.01,5.57,1.58l.58.18c2.24.71,4.56,1.45,6.72,2.45,1.42.66,2.76,1.5,3.96,2.51.41.34.79.77,1.2,1.22.81.91,1.64,1.84,2.86,2.3.28.1.53.16.78.16.1,0,.21-.01.3-.03.89-.17,1.21-.74,1.33-1.06.47-1.35-.97-3.35-1.59-4.11l3.32-4.46c1.12-.2,4.45-1.06,6.45-4.61.6-.38,2.21-1.58,2.81-3.78,1.86.47,4.78,2.31,5.88,3.08.1.07.21.1.32.1.18,0,.36-.09.47-.26.18-.27.11-.63-.15-.81-.17-.12-3.82-2.66-6.32-3.26.02-.26.03-.53.02-.8,1.82-.17,5,.6,6.21.95.05.02.1.02.16.02.25,0,.48-.17.55-.42.09-.31-.09-.63-.39-.72-.48-.14-4.26-1.22-6.65-.99-.07-.37-.17-.74-.29-1.12,2.02-.99,5.96-2.63,7.85-2.2.31.07.61-.13.68-.44.07-.32-.12-.63-.43-.7ZM45.3,11.97c.62,1.26,1.74,4.38.78,9.23-.19,0-.38,0-.58,0-.23-.39-.47-.78-.73-1.16.39-.15.76-.85.74-1.43l-.19-4.93s-.11-.2-.32.14c-.14.22-.83,2.93-1.3,4.78-.81-.97-1.68-1.8-2.59-2.48l4.2-4.15ZM35.02,15.61c1.52.05,2.99.5,4.37,1.35,1.24.76,2.41,1.85,3.46,3.22.14.19.27.36.38.51.13.18.25.36.37.54-.26.02-.53.03-.79.06,0,0-.01,0-.02,0-.61.05-1.2.12-1.79.21.29-.35.46-.81.46-1.31,0-1.13-.9-2.04-2-2.04s-1.99.92-1.99,2.04c0,.79.45,1.48,1.09,1.82-.99.26-2.11.62-3.34,1.07-1.58-1.85-4.05-4.71-6.12-6.93,1.92-.42,3.93-.61,5.9-.55ZM22.65,18.41c.22-2.32.59-3.61.77-3.88.19-.29.33-.53.44-.71.03.02.07.04.11.06.21.12.46.26.79.43.16.08.69.44,2.19,1.98.01.01.02.02.03.03,2.03,2.08,4.78,5.24,6.61,7.39-3.57,1.39-7.3,3.16-10.09,4.55-1.07-2.44-1.15-6.72-.85-9.84ZM18.28,30.42c-.12-.1-1.09-1.13.85-7.3.32-1.04.92-2,1.77-2.88-.12,3.09.15,6.5,1.15,8.76-1.12.57-1.55.8-1.57.81,0,0-.02,0-.02.01-1.25.74-1.95.79-2.18.6ZM39.15,58.31s-.05.02-.09.02c0,0-.06.01-.23-.05-.85-.32-1.51-1.06-2.22-1.85-.43-.48-.87-.98-1.38-1.4-1.32-1.09-2.77-2.01-4.32-2.73-2.25-1.04-4.62-1.8-6.91-2.52l-.57-.18c-1.82-.58-3.73-1.12-5.67-1.61-.26-.07-.54-.11-.84-.16-.47-.07-1-.15-1.27-.31-.38-.22-.74-.41-1.05-.57-1.57-.84-2.36-1.26-2.92-3.13-.22-.72.31-1.33,1.02-1.82.48,1.48,1.8,2.86,3.95,4.11,1.93,1.12,3.84,1.73,3.92,1.75.08.03.16.04.24.04.35,0,.67-.23.78-.59.13-.44-.11-.91-.54-1.04-1.93-.61-6.94-2.79-6.92-5.56,0-.2.03-.4.08-.6.22-.84.49-1.51.82-2,.36.78,1.15,1.72,2.44,2.92,0,0,0,0,0,0,0,0,0,0,.01.01,3.24,3.01,8.43,6.49,8.65,6.64.02.02.05.03.07.04.81.43,1.66.91,2.67,1.5,2.55,1.49,4.44,2.73,6.14,4.02,1.17.89,2.04,1.69,2.72,2.51.85,1.03,1.43,2.18,1.41,2.56ZM50.1,41.46c-.51,1.97-2.21,2.9-2.23,2.91-.14.08-.26.2-.34.34-1.92,3.61-5.49,3.99-5.64,4-.23.02-.44.14-.58.33l-3.36,4.52c-.56-.55-1.21-1.09-1.97-1.67-1.75-1.33-3.7-2.6-6.3-4.12-1.01-.59-1.87-1.08-2.69-1.51-.43-.29-4.9-3.32-7.93-6.02.56-1.1,1.13-2.76,1.3-5.07.08-1.07.06-2.21-.05-3.41.4-.18.74-.37.94-.5.09-.05.72-.38,2.26-1.17,3.08-1.56,7.62-3.73,11.74-5.26,1.72-.64,3.21-1.1,4.43-1.39.98-.23,2.02-.39,3.09-.49,2.46.77,3.88,3.12,4.71,5.57,0,.02.01.04.02.06.17.52.32,1.04.44,1.56l-1.75-.52s-.04,0-.06-.01c-.02,0-.03,0-.05-.01-.05,0-.09-.01-.14-.01-.01,0-.02,0-.04,0-.04,0-.07,0-.11.02,0,0-.02,0-.02,0,0,0-.01,0-.02,0-.04.01-.08.03-.12.04-.01,0-.02.01-.03.02-.04.02-.07.04-.1.06-.01.01-.03.02-.04.04-.02.02-.04.04-.07.06-.01.01-.03.03-.04.04,0,0,0,0-.01.01l-1.5,1.82c-.29.35-.25.88.1,1.18.15.13.34.2.52.2.23,0,.46-.1.62-.3l.46-.56.22.97c.09.38.42.64.79.64.06,0,.13,0,.19-.02.44-.11.71-.55.6-1l-.27-1.19,1.22.36c.3,1.9.31,3.34.31,3.38,0,.16.04.31.13.45,1.32,2.12,1.77,4.02,1.35,5.63Z"/>
        <path class="cls-5" d="M27.39,24.79l1.87-.6c1-.32,1.37-1.58.72-2.41l-4.29-5.47h0l-.91-1.17s-.49-.21-.7.36c-.15.42.85,5.48,1.4,8.16.18.88,1.07,1.41,1.91,1.14Z"/>
        <path class="cls-5" d="M38.1,39.33c.25,0,.48-.17.55-.44.08-.31-.1-.63-.41-.71-.32-.09-7.89-2.11-11.71-1.84-.31.02-.55.3-.53.62.02.32.29.57.61.54,3.64-.26,11.27,1.79,11.34,1.81.05.01.1.02.15.02Z"/>
        <path class="cls-5" d="M38.67,40.96c-.02-.32-.29-.57-.6-.55-.29.02-7.06.44-9.48,2.28-.25.19-.31.56-.12.82.11.15.28.24.46.24.12,0,.24-.04.34-.12,2.14-1.63,8.8-2.05,8.86-2.05.31-.02.55-.3.54-.62Z"/>
        <path class="cls-5" d="M38.06,42.82c-.18.05-4.42,1.35-5.8,3.46-.17.27-.1.63.16.81.1.07.21.1.32.1.18,0,.37-.09.48-.26.95-1.46,4.06-2.65,5.17-2.99.3-.09.48-.42.39-.73-.09-.31-.41-.49-.71-.4Z"/>
        <path class="cls-5" d="M40.84,31.53l-3.11-1.68s-.08-.04-.11-.05c-.01,0-.02,0-.03-.01-.04-.01-.08-.02-.11-.03,0,0-.02,0-.03,0-.05,0-.09,0-.14,0,0,0,0,0-.01,0,0,0-.01,0-.02,0-.04,0-.09.01-.13.03,0,0,0,0-.01,0-.04.01-.09.03-.13.05-.01,0-.02.01-.03.02-.01,0-.02.01-.03.02l-3.83,2.43c-.38.24-.5.76-.26,1.15.15.26.42.4.69.4.15,0,.29-.04.43-.13l2.7-1.72.17,2.08c.04.44.39.77.81.77.02,0,.05,0,.07,0,.45-.04.78-.44.74-.9l-.16-1.92,1.79.97c.4.22.89.06,1.1-.35.21-.41.06-.91-.34-1.13Z"/>
        <path class="cls-5" d="M47.44,36.51s-.02,0-.03,0l-1.77.09c-.36,0-1.17.01-1.3.67-.05.25-.15.74,1.37,1.49.14.65.07,1.19-.19,1.59-.49.75-1.53.9-1.54.9-.31.04-.54.33-.5.65.04.3.28.51.57.51.02,0,.05,0,.07,0,.06,0,1.56-.21,2.35-1.41.12-.18.21-.37.28-.57.41,1.27,1.39,1.68,1.44,1.7.29.12.62-.03.74-.33.11-.3-.03-.63-.32-.75-.06-.03-1.08-.51-.87-2.34,1.26-.78,1.12-1.32,1.08-1.51-.17-.68-1.05-.69-1.38-.69Z"/>
      </g>
    </g>
  </g>
</svg>